<?xml version="1.0" standalone="no"?>
<!DOCTYPE svg PUBLIC "-//W3C//DTD SVG 20010904//EN"
 "http://www.w3.org/TR/2001/REC-SVG-20010904/DTD/svg10.dtd">
<svg version="1.0" xmlns="http://www.w3.org/2000/svg"
 width="225.000000pt" height="225.000000pt" viewBox="0 0 225.000000 225.000000"
 preserveAspectRatio="xMidYMid meet">
<metadata>
Created by potrace 1.14, written by Peter Selinger 2001-2017
</metadata>
<g transform="translate(0.000000,225.000000) scale(0.100000,-0.100000)"
fill="#000000" stroke="none">
<path d="M945 2150 c-33 -6 -72 -15 -87 -21 -27 -11 -28 -13 -28 -95 0 -79 -1
-84 -22 -88 -145 -30 -181 -40 -200 -55 -19 -16 -20 -21 -9 -34 16 -20 87 -43
178 -58 71 -12 71 -12 81 -49 7 -29 6 -39 -5 -46 -13 -8 -12 -18 2 -79 8 -38
22 -76 29 -85 7 -8 19 -33 26 -55 23 -73 46 -101 109 -129 40 -18 74 -26 107
-25 l49 2 -50 6 c-71 9 -131 46 -149 91 -16 40 -46 187 -46 225 0 19 10 27 58
45 82 32 267 77 334 82 63 5 61 8 42 -63 -3 -10 3 -18 14 -21 15 -4 18 -13 16
-39 l-3 -34 9 35 c7 27 6 38 -5 46 -11 8 -12 19 -5 46 10 34 12 35 83 47 91
15 162 38 178 58 11 13 10 18 -9 34 -19 15 -56 25 -199 55 -21 4 -22 11 -25
92 l-3 87 -50 13 c-62 17 -340 24 -420 12z"/>
<path d="M1381 1604 c0 -11 3 -14 6 -6 3 7 2 16 -1 19 -3 4 -6 -2 -5 -13z"/>
<path d="M1353 1554 c-11 -13 -24 -40 -28 -62 -9 -55 -38 -98 -82 -121 -21
-11 -33 -20 -27 -21 27 -1 81 49 103 95 13 28 32 67 43 88 23 46 21 51 -9 21z"/>
<path d="M771 1265 c-51 -12 -97 -28 -101 -35 -4 -7 -15 -49 -25 -94 -10 -44
-20 -86 -22 -93 -3 -8 13 -8 59 3 136 32 131 37 52 -52 -39 -43 -74 -85 -78
-92 -4 -7 86 -168 230 -411 201 -338 240 -397 249 -383 7 9 114 189 239 399
139 234 224 388 220 395 -4 7 -39 49 -78 92 -79 89 -84 84 52 52 46 -11 62
-11 59 -3 -2 7 -12 50 -22 95 -10 46 -24 89 -30 96 -11 11 -205 61 -210 54 -2
-3 -25 -116 -91 -448 -25 -124 -48 -232 -51 -240 -3 -8 -19 84 -35 205 l-29
220 27 53 c29 56 35 60 54 37 14 -17 70 -59 70 -52 0 2 -27 39 -59 83 l-60 79
27 28 27 29 -39 -23 c-23 -14 -55 -22 -81 -22 -26 0 -58 8 -81 22 l-39 23 27
-29 27 -28 -60 -79 c-32 -44 -59 -81 -59 -83 0 -10 62 42 91 75 27 32 30 34
24 12 -4 -14 -8 -27 -9 -30 0 -3 9 -22 21 -42 15 -26 30 -38 45 -39 23 0 23 0
2 -9 -27 -11 -27 -13 -55 -247 -13 -106 -26 -190 -29 -185 -4 4 -26 104 -49
222 -23 118 -49 242 -56 275 -8 33 -20 90 -26 128 -7 37 -17 67 -23 66 -6 0
-53 -11 -105 -24z"/>
</g>
</svg>
